<svg xmlns="http://www.w3.org/2000/svg" viewBox="0 0 161.83 108.25"><defs><style>.cls-1{fill:none;stroke:#fff;stroke-miterlimit:10;stroke-width:1.91px;}.cls-2{fill:#fff;}</style></defs><title>Asset 16</title><g id="Layer_2" data-name="Layer 2"><g id="Capa_1" data-name="Capa 1"><g id="Element"><path class="cls-1" d="M158.71,51.27C157.31,49.22,123.75,1,80.91,1S4.52,49.22,3.11,51.27L1.16,54.12l2,2.85c1.41,2.06,35,50.32,77.8,50.32S157.31,59,158.71,57l2-2.85Zm-77.8,44a41.15,41.15,0,1,1,41.15-41.15A41.19,41.19,0,0,1,80.91,95.27Z"/><path class="cls-2" d="M80.91,36.68A17.44,17.44,0,1,0,98.35,54.12,17.44,17.44,0,0,0,80.91,36.68Z"/></g></g></g></svg>